<svg width="216" height="126" viewBox="0 0 216 126" fill="none" xmlns="http://www.w3.org/2000/svg">
<rect width="216" height="126" fill="#E6E6E6"/>
<g id="Sign In">
<path d="M-672 -840C-672 -842.209 -670.209 -844 -668 -844H24000C24002.2 -844 24004 -842.209 24004 -840V3678C24004 3680.21 24002.2 3682 24000 3682H-667.999C-670.209 3682 -672 3680.21 -672 3678V-840Z" fill="#444444"/>
<path d="M-668 -842H24000V-846H-668V-842ZM24002 -840V3678H24006V-840H24002ZM24000 3680H-667.999V3684H24000V3680ZM-670 3678V-840H-674V3678H-670ZM-667.999 3680C-669.104 3680 -670 3679.1 -670 3678H-674C-674 3681.31 -671.313 3684 -667.999 3684V3680ZM24002 3678C24002 3679.1 24001.1 3680 24000 3680V3684C24003.3 3684 24006 3681.31 24006 3678H24002ZM24000 -842C24001.1 -842 24002 -841.104 24002 -840H24006C24006 -843.314 24003.3 -846 24000 -846V-842ZM-668 -846C-671.314 -846 -674 -843.314 -674 -840H-670C-670 -841.105 -669.105 -842 -668 -842V-846Z" fill="white" fill-opacity="0.1"/>
<g id="Sign In Carousel 1">
<rect width="1440" height="1024" transform="matrix(2 0 0 2 -64 -64)" fill="white"/>
<g id="RevScale-LogoBlack 2">
<path id="Vector" d="M158.21 0C158.238 0 158.266 0 158.294 0C158.374 0.327052 158.391 0.635466 158.396 0.971098C158.398 1.08721 158.4 1.20332 158.402 1.31943C158.403 1.38106 158.404 1.44268 158.406 1.50618C158.539 8.39175 159.359 15.574 161.761 22.0941C161.791 22.1764 161.821 22.2587 161.852 22.3435C161.892 22.4503 161.892 22.4503 161.933 22.5593C161.979 22.7399 161.979 22.7399 161.896 22.9827C161.335 22.5446 160.783 22.0977 160.237 21.6427C159.943 21.3989 159.647 21.1595 159.346 20.9241C158.919 20.5889 158.504 20.2408 158.089 19.8913C157.712 19.5745 157.329 19.2667 156.94 18.9633C156.758 18.8184 156.579 18.6718 156.4 18.5226C156.322 18.4571 156.322 18.4571 156.242 18.3902C156.14 18.3047 156.039 18.219 155.937 18.133C155.89 18.0937 155.844 18.0545 155.795 18.014C155.734 17.9618 155.734 17.9618 155.671 17.9086C155.494 17.7761 155.305 17.6693 155.112 17.5607C155.088 17.6231 155.088 17.6231 155.064 17.6867C154.232 19.8962 153.394 22.1036 152.547 24.3078C152.526 24.3608 152.506 24.4138 152.485 24.4685C152.322 24.8926 152.159 25.3167 151.996 25.7407C151.613 26.7362 151.231 27.7321 150.851 28.7283C150.822 28.8028 150.794 28.8774 150.764 28.9542C150.623 29.3242 150.481 29.6942 150.34 30.0642C150.076 30.7549 149.812 31.4454 149.548 32.136C149.399 32.5242 149.251 32.9124 149.102 33.3006C149.043 33.4557 148.984 33.6108 148.924 33.7659C148.895 33.8427 148.866 33.9194 148.835 33.9986C148.568 34.6965 148.568 34.6965 148.479 34.9292C148.42 35.0843 148.361 35.2393 148.301 35.3944C148.153 35.7827 148.004 36.171 147.856 36.5592C147.591 37.2512 147.327 37.9431 147.062 38.6351C146.36 40.4705 145.658 42.3055 144.954 44.1402C144.293 45.8644 143.633 47.5891 142.974 49.3139C142.708 50.0082 142.443 50.7025 142.177 51.3967C142.029 51.7847 141.88 52.1727 141.732 52.5607C141.673 52.7158 141.613 52.8709 141.554 53.026C141.525 53.1028 141.495 53.1796 141.465 53.2587C141.198 53.9566 141.198 53.9566 141.109 54.1893C141.05 54.3444 140.99 54.4995 140.931 54.6545C140.783 55.0428 140.634 55.4311 140.486 55.8193C140.221 56.5113 139.956 57.2032 139.692 57.8952C138.99 59.7306 138.287 61.5656 137.584 63.4003C136.923 65.1245 136.263 66.8492 135.603 68.574C135.338 69.2683 135.072 69.9626 134.807 70.6569C134.658 71.0448 134.51 71.4328 134.362 71.8208C134.302 71.9759 134.243 72.131 134.184 72.2861C134.154 72.3629 134.125 72.4397 134.095 72.5188C133.828 73.2168 133.828 73.2168 133.739 73.4494C133.679 73.6045 133.62 73.7596 133.561 73.9146C133.412 74.3029 133.264 74.6912 133.115 75.0795C132.851 75.7714 132.586 76.4634 132.321 77.1553C131.62 78.9907 130.917 80.8257 130.214 82.6604C129.553 84.3847 128.893 86.1093 128.233 87.8341C127.968 88.5284 127.702 89.2227 127.437 89.917C127.288 90.305 127.14 90.6929 126.991 91.0809C126.932 91.236 126.873 91.3911 126.813 91.5462C126.784 91.623 126.755 91.6998 126.724 91.7789C126.457 92.4769 126.457 92.4769 126.368 92.7095C126.309 92.8646 126.25 93.0197 126.191 93.1748C126.042 93.563 125.894 93.9513 125.745 94.3396C125.48 95.0315 125.216 95.7235 124.951 96.4155C124.249 98.2508 123.547 100.086 122.843 101.921C122.182 103.645 121.522 105.369 120.863 107.094C120.597 107.789 120.332 108.483 120.066 109.177C119.918 109.565 119.77 109.953 119.621 110.341C119.562 110.496 119.502 110.651 119.443 110.806C119.414 110.883 119.384 110.96 119.354 111.039C119.087 111.737 119.087 111.737 118.998 111.97C118.939 112.125 118.879 112.28 118.82 112.435C118.673 112.821 118.525 113.206 118.378 113.591C118.1 114.318 117.822 115.046 117.544 115.773C117.413 116.117 117.282 116.461 117.151 116.804C117.088 116.968 117.026 117.132 116.963 117.296C116.877 117.524 116.79 117.751 116.703 117.978C116.678 118.045 116.653 118.111 116.627 118.18C116.484 118.553 116.332 118.919 116.166 119.283C116.111 119.283 116.056 119.283 115.999 119.283C115.976 119.233 115.953 119.183 115.929 119.131C115.208 117.56 114.482 115.991 113.755 114.422C113.485 113.84 113.216 113.259 112.947 112.677C112.798 112.357 112.65 112.037 112.502 111.717C112.443 111.589 112.383 111.46 112.324 111.332C112.295 111.269 112.265 111.206 112.235 111.14C111.672 109.923 111.108 108.706 110.544 107.488C110.515 107.425 110.486 107.362 110.455 107.296C110.396 107.168 110.337 107.04 110.277 106.912C110.129 106.592 109.981 106.272 109.833 105.952C109.563 105.369 109.293 104.786 109.023 104.202C108.459 102.984 107.895 101.767 107.33 100.549C106.734 99.2654 106.14 97.981 105.545 96.6967C105.306 96.1797 105.067 95.6627 104.827 95.1458C104.709 94.8902 104.591 94.6347 104.472 94.3791C104.205 93.801 103.937 93.2228 103.669 92.6447C102.834 90.8435 102.003 89.0409 101.174 87.237C101.119 87.237 101.064 87.237 101.007 87.237C100.935 87.3711 100.935 87.3711 100.862 87.5079C100.425 88.3198 99.9707 89.1202 99.5019 89.9153C99.1724 90.4753 98.852 91.0396 98.5362 91.6069C98.1373 92.3232 97.7277 93.0328 97.3113 93.7397C96.9864 94.2929 96.6705 94.8503 96.3586 95.4104C95.9597 96.1267 95.5501 96.8363 95.1337 97.5432C94.8088 98.0964 94.493 98.6538 94.181 99.2139C93.8256 99.8521 93.4632 100.486 93.0922 101.116C92.6682 101.836 92.2563 102.561 91.8493 103.291C91.4849 103.944 91.114 104.593 90.7398 105.24C90.5009 105.654 90.2629 106.068 90.0248 106.482C89.9715 106.574 89.9183 106.667 89.8635 106.762C89.4444 107.491 89.0273 108.221 88.6107 108.952C88.2075 109.658 87.8029 110.364 87.397 111.069C86.9646 111.821 86.5336 112.572 86.104 113.325C86.0763 113.374 86.0485 113.422 86.0199 113.473C85.8228 113.818 85.6258 114.163 85.4288 114.509C85.2037 114.903 84.9787 115.298 84.7535 115.692C84.7258 115.741 84.698 115.789 84.6694 115.84C84.2163 116.633 83.7611 117.426 83.3052 118.218C82.9228 118.883 82.5422 119.548 82.1624 120.214C81.6805 121.059 81.1971 121.903 80.7112 122.745C80.4271 123.238 80.1451 123.732 79.8654 124.228C79.773 124.391 79.6805 124.554 79.5881 124.718C79.5284 124.823 79.4688 124.929 79.4094 125.035C79.3271 125.182 79.2443 125.328 79.1614 125.475C79.1141 125.559 79.0668 125.643 79.0181 125.729C78.896 125.919 78.896 125.919 78.7285 126C78.7825 125.694 78.8729 125.424 78.9924 125.136C79.0301 125.045 79.0679 124.953 79.1067 124.859C79.1485 124.759 79.1902 124.659 79.232 124.559C79.2757 124.454 79.3193 124.348 79.3629 124.243C79.4806 123.959 79.5988 123.675 79.7172 123.391C79.8164 123.152 79.9154 122.914 80.0144 122.675C80.6857 121.058 81.3635 119.444 82.0456 117.831C82.6085 116.5 83.1654 115.167 83.7171 113.831C84.4224 112.124 85.1311 110.418 85.8423 108.712C85.8937 108.589 85.9451 108.466 85.9965 108.343C86.2057 107.841 86.4149 107.34 86.6242 106.838C87.1866 105.49 87.7485 104.141 88.3103 102.793C88.4462 102.466 88.582 102.14 88.7179 101.814C88.9089 101.356 89.1 100.897 89.291 100.439C89.644 99.5916 89.997 98.7444 90.35 97.8973C90.3901 97.8009 90.3901 97.8009 90.431 97.7027C90.6472 97.184 90.8633 96.6653 91.0794 96.1466C91.2686 95.6927 91.4577 95.2387 91.6468 94.7848C91.6736 94.7206 91.7003 94.6564 91.7279 94.5902C92.1085 93.6768 92.4891 92.7634 92.8696 91.85C94.6771 87.5119 94.6771 87.5119 95.5047 85.5265C95.5297 85.4666 95.5547 85.4067 95.5804 85.3449C95.8305 84.745 96.0806 84.1451 96.3307 83.5452C96.8606 82.2742 97.3903 81.0032 97.9198 79.732C98.0068 79.5229 98.0939 79.3139 98.181 79.1049C98.2239 79.0018 98.2239 79.0018 98.2677 78.8966C98.3252 78.7585 98.3827 78.6204 98.4403 78.4824C98.5778 78.1521 98.7153 77.8219 98.8528 77.4917C98.9046 77.3674 98.9564 77.243 99.0081 77.1187C99.0462 77.0272 99.0462 77.0272 99.0851 76.9338C99.2105 76.6327 99.336 76.3316 99.4617 76.0306C99.5114 75.9116 99.5611 75.7925 99.6108 75.6735C99.6355 75.6144 99.6601 75.5554 99.6856 75.4946C99.8509 75.0983 100.015 74.7017 100.179 74.3049C100.295 74.0244 100.412 73.7441 100.528 73.4639C100.584 73.3292 100.64 73.1945 100.695 73.0596C100.772 72.8735 100.849 72.6876 100.926 72.5018C100.949 72.446 100.972 72.3903 100.995 72.3329C101.155 71.9514 101.155 71.9514 101.342 71.8613C102.13 73.5397 102.917 75.2188 103.69 76.904C104.132 77.8682 104.578 78.8305 105.027 79.7919C105.532 80.8751 106.034 81.9596 106.533 83.0458C106.977 84.0128 107.425 84.9779 107.875 85.9422C108.38 87.0254 108.882 88.1099 109.381 89.1961C109.824 90.1631 110.272 91.1282 110.722 92.0925C111.228 93.1756 111.73 94.26 112.228 95.3461C112.675 96.3201 113.127 97.2918 113.58 98.263C114.23 99.6543 114.867 101.051 115.496 102.451C115.865 101.634 116.179 100.799 116.495 99.9619C116.662 99.5207 116.829 99.0798 116.996 98.6389C117.031 98.5468 117.066 98.4547 117.102 98.3599C117.487 97.3437 117.876 96.329 118.265 95.3143C118.336 95.1297 118.407 94.9451 118.478 94.7605C118.583 94.4865 118.688 94.2125 118.793 93.9386C119.138 93.0402 119.482 92.1415 119.825 91.2428C119.854 91.1671 119.883 91.0915 119.913 91.0135C120.058 90.6346 120.203 90.2557 120.348 89.8768C120.672 89.0269 120.998 88.1771 121.323 87.3272C121.412 87.094 121.501 86.8608 121.59 86.6275C121.62 86.5506 121.649 86.4737 121.679 86.3945C121.855 85.9357 122.03 85.4769 122.206 85.0181C122.907 83.1827 123.61 81.3477 124.314 79.513C124.975 77.7887 125.635 76.0641 126.294 74.3393C126.559 73.645 126.825 72.9507 127.091 72.2564C127.239 71.8684 127.387 71.4805 127.536 71.0925C127.595 70.9374 127.654 70.7823 127.714 70.6272C127.743 70.5504 127.773 70.4736 127.803 70.3945C128.07 69.6965 128.07 69.6965 128.159 69.4639C128.218 69.3088 128.277 69.1537 128.337 68.9986C128.485 68.6104 128.634 68.2221 128.782 67.8338C129.047 67.1419 129.312 66.4499 129.576 65.7579C130.278 63.9226 130.98 62.0876 131.684 60.2529C132.345 58.5286 133.005 56.804 133.664 55.0792C133.93 54.3849 134.195 53.6906 134.461 52.9963C134.609 52.6083 134.758 52.2204 134.906 51.8324C134.965 51.6773 135.025 51.5222 135.084 51.3671C135.113 51.2903 135.143 51.2135 135.173 51.1344C135.44 50.4364 135.44 50.4364 135.529 50.2037C135.588 50.0487 135.648 49.8936 135.707 49.7385C135.855 49.3503 136.004 48.962 136.152 48.5737C136.417 47.8818 136.682 47.1898 136.946 46.4978C137.648 44.6625 138.351 42.8275 139.054 40.9927C139.715 39.2685 140.375 37.5439 141.035 35.819C141.3 35.1247 141.566 34.4305 141.831 33.7362C141.98 33.3482 142.128 32.9602 142.276 32.5723C142.336 32.4171 142.395 32.262 142.454 32.1069C142.484 32.0302 142.513 31.9534 142.543 31.8743C142.81 31.1763 142.81 31.1763 142.899 30.9436C142.959 30.7886 143.018 30.6335 143.077 30.4784C143.226 30.0901 143.374 29.7019 143.523 29.3136C143.787 28.6217 144.052 27.9297 144.317 27.2377C144.983 25.4954 145.65 23.7533 146.317 22.0116C146.831 20.6714 147.345 19.3311 147.858 17.9906C147.919 17.8311 147.98 17.6715 148.041 17.512C148.125 17.2919 148.209 17.0718 148.294 16.8517C148.318 16.7887 148.342 16.7258 148.367 16.6609C148.551 16.1792 148.733 15.6966 148.914 15.2139C148.813 15.2141 148.711 15.2142 148.607 15.2144C147.651 15.2161 146.694 15.2173 145.738 15.2181C145.246 15.2185 144.755 15.2191 144.263 15.22C143.789 15.2209 143.314 15.2213 142.839 15.2216C142.659 15.2217 142.478 15.222 142.297 15.2224C142.043 15.223 141.789 15.2231 141.536 15.2231C141.461 15.2234 141.387 15.2236 141.31 15.2239C140.878 15.2233 140.464 15.1932 140.036 15.1329C140.228 14.9308 140.425 14.801 140.671 14.6648C140.785 14.601 140.785 14.601 140.901 14.5359C140.982 14.4909 141.062 14.4459 141.146 14.3996C141.912 13.9673 142.657 13.5176 143.386 13.0289C143.44 12.9932 143.494 12.9575 143.549 12.9208C145.398 11.6905 147.156 10.3419 148.862 8.93295C149.003 8.81617 149.145 8.69993 149.287 8.58372C149.906 8.07666 150.508 7.55621 151.1 7.02029C151.215 6.91744 151.332 6.81582 151.449 6.71496C152.302 5.97403 153.108 5.18548 153.918 4.40098C154.132 4.19314 154.347 3.98566 154.563 3.77829C154.731 3.61632 154.898 3.45416 155.066 3.29193C155.183 3.1787 155.3 3.06563 155.418 2.95256C155.79 2.59123 156.152 2.226 156.496 1.83834C156.698 1.61095 156.91 1.39267 157.122 1.17341C157.459 0.823159 157.789 0.469495 158.109 0.104633C158.159 0.0528398 158.159 0.0528398 158.21 0Z" fill="#00A1B3"/>
<path id="Vector_2" d="M31.0723 29.5391C33.8396 29.5358 36.6069 29.5324 39.4581 29.529C40.7643 29.5268 40.7643 29.5268 42.097 29.5245C43.1679 29.5238 43.1679 29.5238 43.6707 29.5236C44.0187 29.5235 44.3667 29.5229 44.7146 29.522C45.1608 29.5209 45.6069 29.5206 46.0531 29.5208C46.2154 29.5207 46.3777 29.5204 46.54 29.5198C48.0385 29.5142 49.5386 29.5933 51.0108 29.878C51.1012 29.8953 51.1916 29.9125 51.2848 29.9303C53.6028 30.3951 55.6734 31.3367 57.3708 32.9379C57.4432 33.0019 57.5155 33.0658 57.59 33.1317C59.3538 34.7324 60.2569 37.1841 60.3323 39.4889C60.3367 39.7393 60.3371 39.9895 60.335 40.24C60.3336 40.4288 60.335 40.6176 60.3365 40.8065C60.3404 43.3956 59.4188 45.8801 57.5383 47.7472C57.475 47.8134 57.4116 47.8797 57.3463 47.9479C56.3148 48.9966 55.0185 49.7028 53.6857 50.3368C53.7665 50.4502 53.7665 50.4502 53.8489 50.566C54.4196 51.3674 54.9886 52.17 55.557 52.973C55.7846 53.2947 56.0124 53.6163 56.2402 53.9379C56.3309 54.0661 56.4216 54.1942 56.5124 54.3223C56.5797 54.4175 56.5797 54.4175 56.6485 54.5145C59.2343 58.1663 59.2343 58.1663 59.3706 58.3588C59.4607 58.4859 59.5507 58.6131 59.6408 58.7402C59.8783 59.0755 60.1156 59.4109 60.3526 59.7465C60.402 59.8164 60.4514 59.8863 60.5023 59.9583C60.5969 60.0922 60.6914 60.2261 60.7859 60.3601C60.8286 60.4205 60.8713 60.4809 60.9153 60.5431C60.9527 60.5961 60.99 60.649 61.0285 60.7035C61.1087 60.8142 61.1929 60.9222 61.2794 61.0284C61.391 61.1807 61.391 61.1807 61.391 61.3426C60.0465 61.4246 58.7028 61.4855 57.3563 61.5229C56.7306 61.5407 56.1066 61.5649 55.482 61.6051C51.3414 61.8661 51.3414 61.8661 50.2984 61.0173C49.5102 60.2519 49.0212 59.2937 48.5591 58.3234C48.2164 57.62 47.7541 56.9881 47.2982 56.3497C46.0186 54.5554 46.0186 54.5554 45.5723 53.5717C45.2332 52.8729 44.7955 52.5082 44.2215 51.8744C42.9225 51.8477 41.6235 51.8209 40.2851 51.7934C40.2851 54.9446 40.2851 58.0959 40.2851 61.3426C37.2449 61.3426 34.2046 61.3426 31.0723 61.3426C31.0723 50.8474 31.0723 40.3523 31.0723 29.5391ZM40.2851 37.227C40.2851 39.7105 40.2851 42.1941 40.2851 44.753C41.4339 44.7596 42.5826 44.7663 43.7661 44.7732C44.1264 44.7761 44.4866 44.7791 44.8577 44.7821C45.1859 44.7832 45.1859 44.7832 45.5141 44.7839C45.6581 44.7844 45.8022 44.7855 45.9463 44.7871C47.3867 44.8029 48.7465 44.6226 49.9429 43.7616C50.7303 42.9832 51.1161 42.1092 51.126 41.0203C51.1097 40.0332 50.8191 39.1704 50.1314 38.4307C48.826 37.2407 46.9993 37.2138 45.3152 37.2191C45.1863 37.2192 45.0573 37.2193 44.9284 37.2193C44.4537 37.2197 43.9791 37.2209 43.5044 37.2219C42.442 37.2236 41.3797 37.2252 40.2851 37.227Z" fill="#222329"/>
<path id="Vector_3" d="M178.144 80.4375C186.905 80.4375 195.666 80.4375 204.693 80.4375C204.693 82.9478 204.693 85.4581 204.693 88.0444C198.945 88.0444 193.196 88.0444 187.273 88.0444C187.273 89.5933 187.273 91.1422 187.273 92.7381C192.469 92.7381 197.665 92.7381 203.018 92.7381C203.018 95.0614 203.018 97.3848 203.018 99.7785C197.822 99.7785 192.626 99.7785 187.273 99.7785C187.273 101.408 187.273 103.037 187.273 104.715C193.104 104.715 198.936 104.715 204.945 104.715C204.945 107.199 204.945 109.682 204.945 112.241C196.1 112.241 187.256 112.241 178.144 112.241C178.144 101.746 178.144 91.2507 178.144 80.4375Z" fill="#222329"/>
<path id="Vector_4" d="M74.2891 29.5391C83.0505 29.5391 91.8119 29.5391 100.839 29.5391C100.839 32.0494 100.839 34.5596 100.839 37.146C95.0901 37.146 89.3412 37.146 83.4182 37.146C83.4182 38.6949 83.4182 40.2438 83.4182 41.8396C88.6142 41.8396 93.8103 41.8396 99.1638 41.8396C99.1638 44.163 99.1638 46.4863 99.1638 48.8801C93.9678 48.8801 88.7717 48.8801 83.4182 48.8801C83.4182 50.5091 83.4182 52.1381 83.4182 53.8165C89.2499 53.8165 95.0817 53.8165 101.09 53.8165C101.09 56.3001 101.09 58.7837 101.09 61.3425C92.2458 61.3425 83.4014 61.3425 74.2891 61.3425C74.2891 50.8474 74.2891 40.3522 74.2891 29.5391Z" fill="#222329"/>
<path id="Vector_5" d="M22.5301 81.0067C22.6228 81.0362 22.6228 81.0362 22.7174 81.0664C24.6336 81.6875 26.7406 82.6482 28.2253 84.0009C28.2897 84.1542 28.2897 84.1542 28.3091 84.3246C28.2372 84.4694 28.2372 84.4694 28.1203 84.618C28.0769 84.6743 28.0336 84.7306 27.9889 84.7887C27.9408 84.8492 27.8927 84.9097 27.8432 84.972C27.7417 85.1034 27.6404 85.2349 27.5392 85.3665C27.4864 85.4347 27.4336 85.503 27.3792 85.5733C27.1237 85.9076 26.8791 86.249 26.634 86.5905C26.2607 87.1086 25.8825 87.6227 25.4981 88.1331C24.939 88.8759 24.4029 89.6334 23.8701 90.394C23.4803 90.3527 23.2312 90.1806 22.9227 89.9641C20.5657 88.3857 17.5774 87.3654 14.6991 87.3694C14.6003 87.3695 14.5014 87.3697 14.3996 87.3698C13.4657 87.3825 12.5514 87.4845 11.8607 88.1613C11.4437 88.614 11.3511 89.0118 11.365 89.6024C11.4175 90.0597 11.6215 90.4002 11.9562 90.7227C13.3938 91.7979 15.5291 92.0469 17.2539 92.436C20.4029 93.1471 23.7556 93.9449 26.299 95.9778C26.3718 96.0359 26.4447 96.094 26.5198 96.1539C28.1196 97.4866 29.0483 99.2881 29.2303 101.319C29.3877 104.101 28.8454 106.674 26.969 108.845C26.9224 108.901 26.8757 108.958 26.8277 109.016C25.0914 111.072 22.2123 112.099 19.5987 112.567C19.5258 112.581 19.4529 112.594 19.3778 112.608C13.7949 113.581 7.28599 112.314 2.6046 109.222C1.87564 108.727 1.17041 108.201 0.50293 107.631C0.576228 107.265 0.796243 107.047 1.04733 106.776C1.13978 106.674 1.23215 106.572 1.32443 106.47C1.39292 106.395 1.39292 106.395 1.46278 106.318C1.63753 106.123 1.80604 105.924 1.97385 105.724C2.28583 105.353 2.60428 104.988 2.92478 104.623C3.16592 104.349 3.40349 104.072 3.63845 103.792C4.05052 103.303 4.47591 102.825 4.90207 102.348C5.11121 102.113 5.31966 101.878 5.52813 101.643C5.76768 101.752 5.98065 101.877 6.19685 102.025C7.03828 102.595 7.88096 103.129 8.79451 103.585C8.85534 103.615 8.91616 103.646 8.97883 103.677C10.4891 104.423 12.063 104.932 13.736 105.203C13.7942 105.213 13.8523 105.222 13.9123 105.232C15.5523 105.486 17.748 105.68 19.1799 104.718C19.5651 104.379 19.8156 104.027 19.8781 103.517C19.8853 102.989 19.8761 102.547 19.5149 102.128C18.148 100.918 15.9555 100.614 14.2107 100.203C6.74609 98.4423 6.74609 98.4423 4.18808 95.9778C4.12103 95.9149 4.05399 95.852 3.98491 95.7872C2.4043 94.2125 1.9642 92.0223 1.98107 89.9018C2.04218 87.3308 3.03404 84.9293 4.94186 83.1107C9.54698 79.0536 16.9539 79.209 22.5301 81.0067Z" fill="#222329"/>
<path id="Vector_6" d="M70.9057 83.9186C71.3648 84.3278 71.8045 84.7425 72.1956 85.2141C72.2329 85.2581 72.2702 85.302 72.3086 85.3474C72.4375 85.4996 72.5653 85.6526 72.6929 85.8058C72.7346 85.8553 72.7762 85.9048 72.8192 85.9558C73.1169 86.319 73.1169 86.319 73.1169 86.5898C72.9215 86.7486 72.7276 86.8922 72.5201 87.0349C72.3957 87.1226 72.2714 87.2105 72.1472 87.2985C72.0531 87.3647 72.0531 87.3647 71.9572 87.4323C71.7009 87.615 71.4505 87.8046 71.201 87.9958C71.1054 88.0689 71.0097 88.1419 70.9141 88.2149C70.84 88.2715 70.84 88.2715 70.7644 88.3292C69.9465 88.9515 69.1229 89.5668 68.2961 90.178C68.0682 90.3472 67.8428 90.5193 67.6176 90.692C67.5497 90.7438 67.4818 90.7956 67.4118 90.8489C67.2776 90.9513 67.1438 91.0542 67.0104 91.1575C66.9491 91.2041 66.8877 91.2508 66.8246 91.2989C66.7701 91.3408 66.7156 91.3827 66.6595 91.4259C66.4937 91.5304 66.3588 91.5726 66.1653 91.6071C66.13 91.5697 66.0947 91.5322 66.0583 91.4937C64.197 89.5299 62.2767 88.1306 59.4427 87.9756C57.5309 87.9043 55.738 88.462 54.2723 89.6649C54.1826 89.7327 54.1826 89.7327 54.0911 89.8018C52.6776 90.919 51.9255 92.6002 51.5085 94.2776C51.4879 94.3598 51.4672 94.442 51.446 94.5267C51.1743 95.8809 51.2412 97.3931 51.5922 98.7285C51.6062 98.7821 51.6201 98.8357 51.6344 98.891C52.1424 100.774 53.2622 102.564 54.9895 103.619C56.8674 104.66 58.9471 105.008 61.0727 104.558C62.3974 104.209 63.5308 103.648 64.574 102.775C64.6562 102.706 64.7383 102.638 64.823 102.567C65.3317 102.134 65.7712 101.685 66.1869 101.166C66.3328 100.994 66.3328 100.994 66.5003 100.913C67.2294 101.408 67.9565 101.905 68.6779 102.411C69.3407 102.874 70.008 103.332 70.6774 103.787C70.8594 103.91 71.0412 104.034 71.2229 104.159C71.9352 104.646 72.6496 105.129 73.3681 105.607C73.2436 105.969 73.0366 106.243 72.7923 106.538C72.7314 106.612 72.7314 106.612 72.6693 106.687C72.2301 107.214 71.7586 107.709 71.2743 108.197C71.1994 108.273 71.1244 108.35 71.0472 108.429C68.1905 111.282 64.079 112.823 59.9995 112.912C59.6311 112.917 59.2629 112.917 58.8945 112.916C58.8172 112.916 58.7399 112.915 58.6603 112.915C57.5422 112.912 56.4573 112.878 55.3611 112.648C55.2916 112.634 55.222 112.621 55.1504 112.607C52.4227 112.076 49.852 110.93 47.7396 109.168C47.6752 109.115 47.6109 109.061 47.5446 109.006C47.3265 108.821 47.1137 108.632 46.902 108.439C46.8575 108.399 46.813 108.359 46.7672 108.318C44.3889 106.149 42.8518 103.274 42.1438 100.205C42.1275 100.135 42.1111 100.064 42.0943 99.9913C41.8407 98.8175 41.7609 97.6484 41.7669 96.4525C41.7672 96.3548 41.7672 96.3548 41.7675 96.2552C41.7837 92.5895 42.911 89.1113 45.227 86.1852C45.2846 86.1098 45.3423 86.0345 45.4017 85.9569C48.1004 82.5867 52.2257 80.5157 56.5546 79.9287C56.7429 79.9087 56.9314 79.89 57.12 79.873C57.2422 79.8597 57.2422 79.8597 57.367 79.8461C62.3053 79.3784 67.2133 80.6829 70.9057 83.9186Z" fill="#222329"/>
<path id="Vector_7" d="M139.784 80.4375C142.824 80.4375 145.865 80.4375 148.997 80.4375C148.997 88.3689 148.997 96.3004 148.997 104.472C154.248 104.472 159.5 104.472 164.91 104.472C164.91 107.036 164.91 109.6 164.91 112.241C156.619 112.241 148.327 112.241 139.784 112.241C139.784 101.746 139.784 91.2507 139.784 80.4375Z" fill="#222329"/>
<path id="Vector_8" d="M113.067 29.375C116.522 29.375 119.977 29.375 123.537 29.375C124.401 31.6028 124.401 31.6028 124.696 32.4091C124.73 32.5012 124.763 32.5934 124.798 32.6884C124.87 32.8831 124.941 33.0778 125.013 33.2726C125.185 33.7434 125.358 34.214 125.531 34.6845C125.57 34.7915 125.61 34.8985 125.649 35.0054C126.034 36.0531 126.423 37.0994 126.813 38.1452C126.937 38.4769 127.061 38.8086 127.185 39.1404C127.231 39.2633 127.231 39.2633 127.277 39.3887C127.693 40.5038 128.107 41.6196 128.52 42.7357C128.858 43.6472 129.197 44.5583 129.538 45.4685C129.695 45.8863 129.852 46.3042 130.008 46.7221C130.138 47.07 130.269 47.4178 130.4 47.7655C130.481 47.982 130.562 48.1987 130.643 48.4155C130.699 48.5644 130.755 48.7132 130.812 48.8619C131.1 49.635 131.222 50.1236 130.92 50.8985C130.893 50.97 130.866 51.0415 130.839 51.1152C130.78 51.2717 130.721 51.4279 130.661 51.584C130.531 51.9256 130.403 52.2682 130.275 52.6107C130.206 52.7963 130.136 52.9818 130.066 53.1673C129.672 54.219 129.291 55.2754 128.911 56.3319C128.735 56.8213 128.558 57.3104 128.381 57.7996C128.325 57.9566 128.268 58.1136 128.211 58.2706C127.886 59.1712 127.56 60.0713 127.232 60.9711C127.209 61.034 127.186 61.097 127.163 61.1618C127.043 61.4911 126.923 61.8203 126.803 62.1496C126.748 62.1496 126.692 62.1496 126.635 62.1496C126.006 60.685 125.385 59.2172 124.777 57.7442C124.172 56.2796 123.564 54.8164 122.954 53.354C122.882 53.1813 122.81 53.0086 122.738 52.836C122.541 52.3637 122.344 51.8914 122.147 51.4191C121.619 50.1557 121.093 48.8922 120.566 47.6286C120.439 47.324 120.312 47.0195 120.185 46.7149C119.853 45.9179 119.521 45.1208 119.188 44.3238C118.882 43.5884 118.575 42.8531 118.269 42.1177C118.142 41.8137 118.015 41.5096 117.889 41.2055C117.313 39.8234 116.736 38.4414 116.16 37.0596C115.759 36.1008 115.36 35.142 114.96 34.183C114.711 33.5862 114.462 32.9896 114.213 32.3932C114.068 32.0468 113.924 31.7003 113.779 31.3537C113.714 31.1963 113.648 31.0389 113.582 30.8816C113.494 30.6704 113.406 30.459 113.318 30.2475C113.292 30.1863 113.266 30.1251 113.24 30.0621C113.14 29.8207 113.067 29.6376 113.067 29.375Z" fill="#222329"/>
</g>
</g>
</g>
</svg>
